<svg viewBox="0 0 100 100" xmlns="http://www.w3.org/2000/svg" style="display: none"><symbol viewBox="0 0 38 32" id="icon-arrow-left"> <path d="M36.2,9.5c0-0.3-0.1-0.5-0.4-0.7L23,0.1c-0.3-0.2-0.6-0.2-0.9,0c-0.3,0.1-0.4,0.4-0.4,0.7v7.8C9.6,9.1,0,19,0,31.2
	C0,31.6,0.4,32,0.8,32s0.8-0.4,0.8-0.8c0-11.2,8.9-20.3,19.9-20.8v7.8c0,0.3,0.2,0.6,0.4,0.7c0.1,0.1,0.3,0.1,0.4,0.1
	c0.2,0,0.3,0,0.5-0.1l12.9-8.7C36.1,10.1,36.2,9.8,36.2,9.5z M23.3,16.6V2.4l10.5,7.1L23.3,16.6z"/> </symbol><symbol viewBox="0 0 28 32" id="icon-campfire">  <path d="M11.4,23.1l-5.3,2.1c-0.3,0.1-0.4,0.4-0.3,0.7c0.1,0.3,0.5,0.4,0.8,0.3c0,0,0,0,0,0l5.3-2.1c0.3-0.1,0.4-0.4,0.3-0.7
	C12.1,23.1,11.7,23,11.4,23.1z"/> <path d="M11.3,25.5l-3.2,1.3c-0.3,0.1-0.4,0.4-0.3,0.7c0.1,0.3,0.5,0.4,0.8,0.3c0,0,0,0,0,0l3.2-1.3c0.3-0.1,0.4-0.4,0.3-0.7
	C11.9,25.6,11.6,25.4,11.3,25.5C11.3,25.5,11.3,25.5,11.3,25.5z"/> <path d="M18.3,21.5L14,23.2c-0.3,0.1-0.4,0.4-0.3,0.7c0.1,0.3,0.5,0.4,0.8,0.3c0,0,0,0,0,0l4.3-1.7c0.3-0.1,0.4-0.4,0.3-0.7
	C18.9,21.5,18.6,21.4,18.3,21.5C18.3,21.5,18.3,21.5,18.3,21.5z"/> <path d="M16.6,21c0.1,0,0.2,0,0.2,0l5.3-2.1c0.3-0.1,0.4-0.4,0.3-0.7c-0.1-0.3-0.5-0.4-0.8-0.3c0,0,0,0,0,0l-5.3,2.1
	C16,20,15.9,20.4,16,20.6C16.1,20.9,16.3,21,16.6,21z"/> <path d="M22.6,19.8l-2.1,0.9c-0.3,0.1-0.4,0.4-0.3,0.7c0.1,0.3,0.5,0.4,0.8,0.3c0,0,0,0,0,0l2.1-0.9c0.3-0.1,0.4-0.4,0.3-0.7
	C23.2,19.8,22.9,19.7,22.6,19.8z"/> <path d="M27,23.7c-0.1,0-0.2-0.1-0.3-0.1c-0.1-0.1-0.1-0.1-0.2-0.1l-0.6-0.2l1-0.4c0.6-0.2,1-0.8,1.1-1.4c0.1-1.4-0.2-2.7-0.8-3.9
	c0,0,0,0,0,0c1.2-3.6,0.6-7.6-1.8-10.6c-0.2-0.2-0.6-0.3-0.8-0.1c-0.2,0.1-0.2,0.3-0.2,0.5c0,0,0.4,3-1.4,4.5
	c0.1-2.8-1.3-5.5-3.6-7.2c-0.2-0.2-0.6-0.2-0.8,0.1c-0.1,0.1-0.1,0.2-0.1,0.3c0,0.9-0.2,1.8-0.7,2.6c-1.4-1-2.3-2.4-2.5-4
	c-0.1-0.9-0.1-1.8,0-2.7c0.1-0.3,0-0.6-0.3-0.7C14.6,0,14.4,0,14.2,0.1l0,0c-3.2,2-5.6,4.9-6.9,8.3C6.5,7,5.9,5.4,5.8,3.8
	c0-0.2-0.2-0.4-0.4-0.5c-0.2-0.1-0.5,0-0.6,0.2C0.9,9,2.6,13.3,3.3,14.7c-2.2,1.6-3.5,4.1-3.3,6.8c0,0.6,0.5,1.2,1.1,1.4l1,0.4
	l-0.6,0.2c-0.1,0-0.2,0.1-0.2,0.1c-0.1,0-0.2,0-0.3,0.1c-1.4,0.6-1.2,2.9-0.3,4.9c0.4,0.9,1,1.8,1.7,2.5c0.4,0.5,1,0.7,1.7,0.8l0,0
	C4.2,32,4.3,32,4.4,32c0,0,0.1,0,0.1,0L18,29.6l4.9,2c0.1,0,0.1,0,0.2,0c0,0,0,0,0,0c0.2,0.2,0.5,0.3,0.8,0.3c0.6,0,1.3-0.3,1.7-0.8
	c0.7-0.7,1.3-1.6,1.7-2.5C28.2,26.6,28.4,24.3,27,23.7z M23,26.9c-0.5,1-0.7,2.2-0.7,3.3L17,28l2-0.8l1.6,0.6c0.3,0.1,0.6,0,0.8-0.3
	c0.1-0.3,0-0.6-0.3-0.7l-0.6-0.2l3.6-1.4C23.6,25.7,23.3,26.3,23,26.9z M15.5,27.4L15.5,27.4C15.5,27.4,15.5,27.4,15.5,27.4
	L15.5,27.4z M26.8,21.4c0,0.2-0.2,0.4-0.4,0.4l-2.3,0.9l0,0l-10.4,4.2l0,0l-8.1,3.3c0.1-1.1-0.2-2.3-0.7-3.3c-0.4-1.1-1.1-2-2-2.8
	l0.9-0.4l0,0L8.2,22l15.6-6.3c0.2-0.1,0.4-0.1,0.6,0.1c0.5,0.4,1,1,1.4,1.5l-2.6,1c-0.3,0.1-0.4,0.4-0.3,0.7
	c0.1,0.3,0.5,0.4,0.8,0.3c0,0,0,0,0,0l2.7-1.1C26.7,19.3,26.9,20.3,26.8,21.4L26.8,21.4z M25.4,9.1c1.1,2.2,1.4,4.7,0.9,7.1
	c-0.4-0.4-0.8-0.8-1.2-1.2c-0.5-0.4-1.2-0.5-1.8-0.3l-1,0.4c0.2-0.6,0.3-1.3,0.4-2c0,0,0.1,0,0.1,0C24.4,12.2,25.3,10.7,25.4,9.1z
	 M13.9,1.7c0,0.6,0,1.3,0.1,1.9c0.4,1.9,1.5,4.3,3.7,5.1c0.3,0.1,0.6,0,0.7-0.2c0.5-0.7,0.8-1.6,1-2.4c4.2,4,1.8,9.2,1.6,9.6
	L14,18.5l-1.6-0.6C10,17,8.3,14.9,8,12.4C7.6,8.8,9.8,4.9,13.9,1.7z M4.9,5.5c0.2,1.6,1,3,2.1,4.2c-0.2,1-0.2,1.9-0.1,2.9
	c0.2,1.3,0.7,2.6,1.5,3.6l-3.8-1.5c0-0.1,0-0.1-0.1-0.1C4.5,14.5,2,10.7,4.9,5.5z M1.5,21.8c-0.2-0.1-0.3-0.2-0.4-0.4
	C1,19.1,2,17,3.9,15.6l8.1,3.3l0,0l0,0l0.5,0.2l-3.9,1.6l-2.1-0.8c-0.3-0.1-0.6,0-0.8,0.3c-0.1,0.3,0,0.6,0.3,0.7l1,0.4l-0.6,0.2
	l-3,1.2L1.5,21.8z M1.8,28.2c-0.8-1.9-0.7-3.3-0.3-3.5c0,0,0.1,0,0.1,0c0.5,0,1.5,0.9,2.3,2.6c0.8,1.9,0.7,3.3,0.3,3.5
	c-0.4,0-0.7-0.2-1-0.5C2.6,29.7,2.1,29,1.8,28.2z M26.2,28.2c-0.3,0.8-0.8,1.5-1.5,2.1c-0.2,0.3-0.6,0.5-1,0.5
	c-0.4-0.2-0.6-1.6,0.3-3.5c0.8-1.9,2-2.8,2.4-2.6C26.9,24.9,27.1,26.3,26.2,28.2z"/> <path d="M9.4,19.8c0.3,0,0.6-0.2,0.6-0.6c0-0.2-0.1-0.4-0.4-0.5l-5.3-2.1c-0.3-0.1-0.6,0-0.8,0.3c-0.1,0.3,0,0.6,0.3,0.7l5.3,2.1
	C9.2,19.8,9.3,19.8,9.4,19.8z"/> </symbol><symbol viewBox="0 0 512 512" id="icon-codepen"><path d="M256 0c-141.4 0-256 114.6-256 256s114.6 256 256 256 256-114.6 256-256-114.6-256-256-256zm0 470c-118 0-214-96-214-214s96-214 214-214 214 96 214 214-96 214-214 214zM414.2 206l-.1-.6c-.1-.4-.1-.8-.2-1.1-.1-.2-.1-.4-.2-.7l-.3-1c-.1-.2-.2-.4-.3-.7-.1-.3-.3-.6-.5-.9l-.4-.6c-.2-.3-.4-.6-.6-.8-.1-.2-.3-.4-.5-.6-.2-.2-.4-.5-.7-.7l-.5-.5c-.2-.2-.5-.4-.8-.6l-.6-.5-.2-.2-144.8-96.5c-4.6-3-10.5-3-15.1 0l-144.7 96.5-.2.2c-.2.1-.4.3-.6.5l-.8.6-.5.5-.7.7-.5.6-.6.8-.4.6-.5.9c-.1.2-.2.4-.3.7l-.3 1c-.1.2-.1.4-.2.7-.1.4-.2.8-.2 1.1l-.1.6c-.1.6-.1 1.2-.1 1.8v96.5c0 .6 0 1.2.1 1.8l.1.6c.1.4.1.8.2 1.1.1.2.1.4.2.7l.3 1c.1.2.2.4.3.7.1.3.3.6.5.9l.4.6c.2.3.4.6.6.8l.5.6c.2.2.4.5.7.7l.5.5c.2.2.5.4.8.7l.6.5.2.2 144.8 96.3c2.3 1.5 4.9 2.3 7.5 2.3 2.6 0 5.3-.8 7.5-2.3l144.7-96.5c.1 0 .1-.1.2-.2.2-.1.4-.3.6-.5.3-.2.5-.4.8-.7.2-.2.4-.3.5-.5l.7-.7.5-.6.6-.8.4-.6.5-.9c.1-.2.2-.4.3-.7l.3-1c.1-.2.2-.4.2-.7.1-.4.2-.8.2-1.1l.1-.6c.1-.6.1-1.2.1-1.8v-96.5c.1-.4 0-1 0-1.6zm-144.6-69.3l106.6 71.1-47.6 31.8-59-39.5v-63.4zm-27.2 0v63.4l-59 39.5-47.6-31.8 106.6-71.1zm-117.5 96.5l34 22.8-34 22.8v-45.6zm117.5 142.1l-106.6-71.1 47.6-31.8 59 39.4v63.5zm13.6-87.1l-48.1-32.2 48.1-32.2 48.1 32.2-48.1 32.2zm13.6 87.1v-63.4l59-39.4 47.6 31.8-106.6 71zm117.5-96.5l-34-22.8 34-22.8v45.6z"/></symbol><symbol viewBox="0 0 26 32" id="icon-dogwalk"> <path d="M25.5,25.2c-0.3,0-0.5,0.2-0.5,0.5c0,0.5-0.4,0.8-0.8,0.8s-0.8-0.4-0.8-0.8c0-0.3,0.1-0.5,0.3-0.6v0.5
	c0,0.3,0.2,0.5,0.5,0.5s0.5-0.2,0.5-0.5v-2.9c0.8-0.2,1.3-0.9,1.3-1.7c0-0.8-0.6-1.5-1.3-1.7v-2.8c0.7-0.8,1-2,1-3.4v-2.5
	c0-0.3-0.2-0.5-0.5-0.5h-5.1c-0.9,0-1.6-0.7-1.6-1.6c0-0.8-0.4-1.5-1-2l-4.9-6.2C12.4,0,12.1,0,11.9,0c-0.2,0.1-0.3,0.3-0.3,0.5v2.1
	L9,0.3C8.9,0.2,8.6,0.2,8.5,0.3C8.3,0.3,8.2,0.5,8.2,0.7l0,6.5c0,0,0,0,0,0c-1.2,1.6-2,3.9-1.4,7.1c-1,0.4-3.7,1.5-6.5,3.8
	c-0.2,0.2-0.2,0.5-0.1,0.7C0.2,19,0.3,19,0.5,19c0.1,0,0.2,0,0.3-0.1c1-0.8,2-1.5,3-2.1c0.8,1.5,4.4,6.8,14.5,7
	c-0.6,1.4-1.4,2.8-2.8,4.1c-0.2,0.2-0.2,0.5,0,0.7c0.1,0.1,0.2,0.1,0.4,0.1c0.1,0,0.3,0,0.4-0.1c4.1-4,4.3-9.4,4.2-10.9h0.4v7.8
	c-1.7,4.1-1,5.5-0.8,5.8c0.2,0.3,0.6,0.6,1.3,0.6s1.1-0.4,1.3-0.6c0.2-0.3,1-1.7-0.8-5.8v-7.8c0.7,0,1.3-0.2,1.9-0.5v2
	c-0.8,0.2-1.3,0.9-1.3,1.7c0,0.8,0.6,1.5,1.3,1.7V24c-0.8,0.2-1.3,0.9-1.3,1.7c0,1,0.8,1.8,1.8,1.8c1,0,1.8-0.8,1.8-1.8
	C26,25.5,25.8,25.2,25.5,25.2z M11.5,3.8C11.6,3.8,11.6,3.8,11.5,3.8l0.1,0.7c-0.5,0.2-1.5,0.7-2.5,1.7l0-4.4L11.5,3.8z M4.7,16.4
	c1.1-0.5,1.9-0.9,2.4-1.1c0.8,1.4,3.8,5.5,12.1,5.6c-0.1,0.6-0.3,1.2-0.5,1.9C8.8,22.8,5.4,17.6,4.7,16.4z M21.8,30.8
	c-0.1,0.1-0.2,0.2-0.5,0.2s-0.4-0.1-0.5-0.2c-0.4-0.6,0-2.3,0.5-3.8C21.8,28.5,22.2,30.2,21.8,30.8z M21.8,16.8h-5.1
	c-0.3,0-0.5,0.2-0.5,0.5s0.2,0.5,0.5,0.5h2.8c0,0.4,0,1.2-0.1,2.3c-4.8-0.1-7.6-1.5-9.2-2.7s-2.2-2.5-2.3-2.7
	c-1.4-7.1,4.3-9.3,4.5-9.4c0.2-0.1,0.3-0.3,0.3-0.5l0-2.8l3.1,3.9h-1.5c-0.3,0-0.5,0.2-0.5,0.5c0,0.3,0.2,0.5,0.5,0.5h1.5
	c0.9,0,1.6,0.7,1.6,1.6c0,0,0,0.1,0,0.1h-1.6c-0.3,0-0.5,0.2-0.5,0.5c0,0.3,0.2,0.5,0.5,0.5h1.7c0,0,0.1,0,0.1,0
	c0.4,0.9,1.3,1.5,2.4,1.5h4.6v2C24.7,14.2,24.4,16.8,21.8,16.8z M23.4,21c0-0.5,0.4-0.8,0.8-0.8S25,20.5,25,21
	c0,0.5-0.4,0.8-0.8,0.8S23.4,21.4,23.4,21z"/> </symbol><symbol viewBox="0 0 512 512" id="icon-dribbble"><path d="M256 511.4c-141.2 0-256-114.8-256-256s114.8-256 256-256 256 114.8 256 256-114.8 256-256 256zm215.9-220.9c-7.5-2.4-67.7-20.3-136.2-9.3 28.6 78.6 40.2 142.6 42.5 155.9 49-33.2 84-85.8 93.7-146.6zm-130.5 166.6c-3.3-19.2-15.9-86-46.6-165.8-.5.2-1 .3-1.4.5-123.3 43-167.6 128.5-171.5 136.6 37.1 28.9 83.7 46.2 134.2 46.2 30.2-.2 59.1-6.4 85.3-17.5zm-247.9-55.1c5-8.5 65-107.8 177.7-144.3 2.9-.9 5.7-1.8 8.6-2.6-5.5-12.4-11.5-24.9-17.7-37.1-109.1 32.7-215.1 31.3-224.7 31.1-.1 2.2-.1 4.4-.1 6.7 0 56.1 21.3 107.4 56.2 146.2zm-51.5-191c9.8.1 99.9.5 202.2-26.6-36.3-64.5-75.4-118.6-81.2-126.5-61.1 28.8-106.9 85.2-121 153.1zm162.8-167.8c6 8.1 45.8 62.2 81.6 128 77.8-29.1 110.7-73.4 114.6-79-38.7-34.2-89.4-55.1-145-55.1-17.6 0-34.8 2.1-51.2 6.1zm220.5 74.3c-4.6 6.2-41.3 53.2-122.1 86.2 5.1 10.4 10 21 14.5 31.7 1.6 3.8 3.2 7.5 4.7 11.3 72.8-9.1 145.1 5.5 152.3 7-.5-51.6-19-99-49.4-136.2z"/></symbol><symbol viewBox="0 0 512 512" id="icon-github"><path d="M256 6C114.6 6 0 120.8 0 262.3c0 113.2 73.3 209.3 175.1 243.2 12.8 2.4 17.5-5.6 17.5-12.4 0-6.1-.2-22.2-.3-43.6-71.3 15.6-86.3-34.3-86.3-34.3-11.6-29.6-28.4-37.5-28.4-37.5-23.2-15.9 1.8-15.6 1.8-15.6 25.7 1.8 39.2 26.4 39.2 26.4 22.8 39.2 59.9 27.9 74.5 21.3 2.3-16.6 8.9-27.9 16.3-34.3C152.6 369 92.8 347 92.8 248.8c0-28 10-50.9 26.4-68.8-2.6-6.5-11.4-32.5 2.5-67.8 0 0 21.5-6.9 70.4 26.3 20.4-5.7 42.3-8.5 64.1-8.6 21.7.1 43.6 2.9 64.1 8.6 48.9-33.2 70.3-26.3 70.3-26.3 14 35.3 5.2 61.4 2.5 67.8 16.4 17.9 26.3 40.8 26.3 68.8 0 98.5-59.9 120.1-116.9 126.5 9.2 7.9 17.4 23.6 17.4 47.5 0 34.3-.3 61.9-.3 70.3 0 6.9 4.6 14.8 17.6 12.3 101.6-34 174.9-130 174.9-243.2C512 120.8 397.4 6 256 6z"/></symbol><symbol viewBox="0 0 512 512" id="icon-linkedin"><path d="M474.1 0h-436.3c-20.9 0-37.8 16.5-37.8 36.9v438.2c0 20.3 16.9 36.9 37.8 36.9h436.3c20.9 0 37.9-16.3 37.9-36.7v-438.3c0-20.3-17-37-37.9-37zm-322.2 436.3h-76v-244.4h75.9v244.4zm-38-277.8c-24.3 0-44-19.7-44-44s19.7-44 44-44 44 19.7 44 44-19.7 44-44 44zm322.4 277.8h-75.9v-118.8c0-28.3-.5-64.8-39.5-64.8-39.5 0-45.6 30.9-45.6 62.7v120.9h-75.9v-244.4h72.8v33.4h1c10.1-19.2 34.9-39.5 71.9-39.5 76.9 0 91.1 50.6 91.1 116.4v134.1z"/></symbol><symbol viewBox="0 0 32 32" id="icon-tent"> <path d="M28.5,17.9c-6.2-4.4-10.2-9.7-11.4-11.5l3.7-2.1c0.6-0.4,0.6-1.2,0-1.6l-4.4-2.5c-0.6-0.4-1.3,0.1-1.3,0.8V6
	C14.3,7.1,10.2,13,3.4,17.8C3,18.1,3,18.6,3.2,19c0,0,3.3,5.2,2.4,12c0,0.5,0.3,0.9,0.9,1h18.9c0.5,0,0.9-0.5,0.9-1
	c-0.8-6.9,2.4-12,2.4-12C29,18.7,28.9,18.1,28.5,17.9z M18.7,3.4l-1.8,1v-2L18.7,3.4z M10.9,30.3c2.8-3.8,4.3-7.8,5.1-10.7
	c0.8,2.9,2.3,6.9,5.1,10.7H10.9z M24.4,30.3h-1.1c-5.6-6.9-6.5-15.3-6.5-15.3c0-0.4-0.4-0.8-0.9-0.8l0,0c-0.4,0-0.8,0.4-0.9,0.8
	c0,0.1-0.8,8.5-6.5,15.3H7.5c0.4-4.7-1-8.5-1.9-10.5h3.2c0.5,0,0.9-0.4,0.9-0.9c0-0.5-0.4-0.9-0.9-0.9H6.2c0.7-0.5,1.3-1.1,1.9-1.6
	h4c0.5,0,0.9-0.4,0.9-0.9s-0.4-0.9-0.9-0.9h-2c2.9-2.8,4.9-5.4,6-6.8c1.5,2.1,5.2,6.8,10.9,11C26,20.5,24,24.7,24.4,30.3z"/> </symbol><symbol viewBox="0 0 39 32" id="icon-tent2"> <g> <rect x="24.5" y="8.9" width="0.9" height="2.1"/> <polygon points="28.5,8.6 26.9,6.3 28.1,6.3 26.3,3.7 27.4,3.7 25,0.1 22.6,3.7 23.7,3.7 21.9,6.3 23.1,6.3 21.5,8.6 	"/> <rect x="13" y="8.5" width="0.9" height="2"/> <polygon points="16.8,8.3 15.3,6 16.4,6 14.7,3.5 15.8,3.5 13.4,0 11.1,3.5 12.2,3.5 10.4,6 11.6,6 10.1,8.3 	"/> <rect x="3.6" y="17" width="1.1" height="2.4"/> <polygon points="8.4,16.7 6.5,13.9 7.9,13.9 5.8,10.8 7.1,10.8 4.2,6.5 1.3,10.8 2.6,10.8 0.5,13.9 1.9,13.9 0,16.7 	"/> <rect x="34.1" y="17" width="1.1" height="2.4"/> <polygon points="38.9,16.7 37,13.9 38.4,13.9 36.2,10.8 37.6,10.8 34.7,6.5 31.8,10.8 33.1,10.8 31,13.9 32.4,13.9 30.5,16.7 	"/> <polygon points="13.2,15.9 7.3,27 9.7,28 12.8,23.3 15.8,30.4 19.7,32 	"/> <polygon points="13.9,15.5 25.3,12 31.9,26.7 20.8,32 	"/> </g> </symbol><symbol viewBox="0 0 512 512" id="icon-twitter"><path d="M512 96c-19.2 9.6-38.4 12.8-60.8 16 22.4-12.8 38.4-32 44.8-57.6-19.2 12.8-41.6 19.2-67.2 25.6-19.2-19.2-48-32-76.8-32-54.4 0-102.4 48-102.4 105.6 0 9.6 0 16 3.2 22.4-86.4-3.2-166.4-44.8-217.6-108.8-9.6 16-12.8 32-12.8 51.2 0 35.2 19.2 67.2 48 86.4-16 0-32-6.4-48-12.8 0 51.2 35.2 92.8 83.2 102.4-9.6 6.4-19.2 6.4-28.8 6.4-6.4 0-12.8 0-19.2-3.2 12.8 41.6 51.2 73.6 99.2 73.6-35.2 28.8-80 44.8-131.2 44.8h-25.6c48 28.8 102.4 48 160 48 192 0 297.6-160 297.6-297.6v-12.8c22.4-16 41.6-35.2 54.4-57.6z"/></symbol></svg>