<svg viewBox="0 0 100 100" xmlns="http://www.w3.org/2000/svg" style="display: none"><symbol viewBox="0 0 512 512" id="icon-codepen"><path d="M256 0c-141.4 0-256 114.6-256 256s114.6 256 256 256 256-114.6 256-256-114.6-256-256-256zm0 470c-118 0-214-96-214-214s96-214 214-214 214 96 214 214-96 214-214 214zM414.2 206l-.1-.6c-.1-.4-.1-.8-.2-1.1-.1-.2-.1-.4-.2-.7l-.3-1c-.1-.2-.2-.4-.3-.7-.1-.3-.3-.6-.5-.9l-.4-.6c-.2-.3-.4-.6-.6-.8-.1-.2-.3-.4-.5-.6-.2-.2-.4-.5-.7-.7l-.5-.5c-.2-.2-.5-.4-.8-.6l-.6-.5-.2-.2-144.8-96.5c-4.6-3-10.5-3-15.1 0l-144.7 96.5-.2.2c-.2.1-.4.3-.6.5l-.8.6-.5.5-.7.7-.5.6-.6.8-.4.6-.5.9c-.1.2-.2.4-.3.7l-.3 1c-.1.2-.1.4-.2.7-.1.4-.2.8-.2 1.1l-.1.6c-.1.6-.1 1.2-.1 1.8v96.5c0 .6 0 1.2.1 1.8l.1.6c.1.4.1.8.2 1.1.1.2.1.4.2.7l.3 1c.1.2.2.4.3.7.1.3.3.6.5.9l.4.6c.2.3.4.6.6.8l.5.6c.2.2.4.5.7.7l.5.5c.2.2.5.4.8.7l.6.5.2.2 144.8 96.3c2.3 1.5 4.9 2.3 7.5 2.3 2.6 0 5.3-.8 7.5-2.3l144.7-96.5c.1 0 .1-.1.2-.2.2-.1.4-.3.6-.5.3-.2.5-.4.8-.7.2-.2.4-.3.5-.5l.7-.7.5-.6.6-.8.4-.6.5-.9c.1-.2.2-.4.3-.7l.3-1c.1-.2.2-.4.2-.7.1-.4.2-.8.2-1.1l.1-.6c.1-.6.1-1.2.1-1.8v-96.5c.1-.4 0-1 0-1.6zm-144.6-69.3l106.6 71.1-47.6 31.8-59-39.5v-63.4zm-27.2 0v63.4l-59 39.5-47.6-31.8 106.6-71.1zm-117.5 96.5l34 22.8-34 22.8v-45.6zm117.5 142.1l-106.6-71.1 47.6-31.8 59 39.4v63.5zm13.6-87.1l-48.1-32.2 48.1-32.2 48.1 32.2-48.1 32.2zm13.6 87.1v-63.4l59-39.4 47.6 31.8-106.6 71zm117.5-96.5l-34-22.8 34-22.8v45.6z"/></symbol><symbol viewBox="0 0 512 512" id="icon-dribbble"><path d="M256 511.4c-141.2 0-256-114.8-256-256s114.8-256 256-256 256 114.8 256 256-114.8 256-256 256zm215.9-220.9c-7.5-2.4-67.7-20.3-136.2-9.3 28.6 78.6 40.2 142.6 42.5 155.9 49-33.2 84-85.8 93.7-146.6zm-130.5 166.6c-3.3-19.2-15.9-86-46.6-165.8-.5.2-1 .3-1.4.5-123.3 43-167.6 128.5-171.5 136.6 37.1 28.9 83.7 46.2 134.2 46.2 30.2-.2 59.1-6.4 85.3-17.5zm-247.9-55.1c5-8.5 65-107.8 177.7-144.3 2.9-.9 5.7-1.8 8.6-2.6-5.5-12.4-11.5-24.9-17.7-37.1-109.1 32.7-215.1 31.3-224.7 31.1-.1 2.2-.1 4.4-.1 6.7 0 56.1 21.3 107.4 56.2 146.2zm-51.5-191c9.8.1 99.9.5 202.2-26.6-36.3-64.5-75.4-118.6-81.2-126.5-61.1 28.8-106.9 85.2-121 153.1zm162.8-167.8c6 8.1 45.8 62.2 81.6 128 77.8-29.1 110.7-73.4 114.6-79-38.7-34.2-89.4-55.1-145-55.1-17.6 0-34.8 2.1-51.2 6.1zm220.5 74.3c-4.6 6.2-41.3 53.2-122.1 86.2 5.1 10.4 10 21 14.5 31.7 1.6 3.8 3.2 7.5 4.7 11.3 72.8-9.1 145.1 5.5 152.3 7-.5-51.6-19-99-49.4-136.2z"/></symbol><symbol viewBox="0 0 512 512" id="icon-github"><path d="M256 6C114.6 6 0 120.8 0 262.3c0 113.2 73.3 209.3 175.1 243.2 12.8 2.4 17.5-5.6 17.5-12.4 0-6.1-.2-22.2-.3-43.6-71.3 15.6-86.3-34.3-86.3-34.3-11.6-29.6-28.4-37.5-28.4-37.5-23.2-15.9 1.8-15.6 1.8-15.6 25.7 1.8 39.2 26.4 39.2 26.4 22.8 39.2 59.9 27.9 74.5 21.3 2.3-16.6 8.9-27.9 16.3-34.3C152.6 369 92.8 347 92.8 248.8c0-28 10-50.9 26.4-68.8-2.6-6.5-11.4-32.5 2.5-67.8 0 0 21.5-6.9 70.4 26.3 20.4-5.7 42.3-8.5 64.1-8.6 21.7.1 43.6 2.9 64.1 8.6 48.9-33.2 70.3-26.3 70.3-26.3 14 35.3 5.2 61.4 2.5 67.8 16.4 17.9 26.3 40.8 26.3 68.8 0 98.5-59.9 120.1-116.9 126.5 9.2 7.9 17.4 23.6 17.4 47.5 0 34.3-.3 61.9-.3 70.3 0 6.9 4.6 14.8 17.6 12.3 101.6-34 174.9-130 174.9-243.2C512 120.8 397.4 6 256 6z"/></symbol><symbol viewBox="0 0 512 512" id="icon-linkedin"><path d="M474.1 0h-436.3c-20.9 0-37.8 16.5-37.8 36.9v438.2c0 20.3 16.9 36.9 37.8 36.9h436.3c20.9 0 37.9-16.3 37.9-36.7v-438.3c0-20.3-17-37-37.9-37zm-322.2 436.3h-76v-244.4h75.9v244.4zm-38-277.8c-24.3 0-44-19.7-44-44s19.7-44 44-44 44 19.7 44 44-19.7 44-44 44zm322.4 277.8h-75.9v-118.8c0-28.3-.5-64.8-39.5-64.8-39.5 0-45.6 30.9-45.6 62.7v120.9h-75.9v-244.4h72.8v33.4h1c10.1-19.2 34.9-39.5 71.9-39.5 76.9 0 91.1 50.6 91.1 116.4v134.1z"/></symbol><symbol viewBox="0 0 512 512" id="icon-twitter"><path d="M512 96c-19.2 9.6-38.4 12.8-60.8 16 22.4-12.8 38.4-32 44.8-57.6-19.2 12.8-41.6 19.2-67.2 25.6-19.2-19.2-48-32-76.8-32-54.4 0-102.4 48-102.4 105.6 0 9.6 0 16 3.2 22.4-86.4-3.2-166.4-44.8-217.6-108.8-9.6 16-12.8 32-12.8 51.2 0 35.2 19.2 67.2 48 86.4-16 0-32-6.4-48-12.8 0 51.2 35.2 92.8 83.2 102.4-9.6 6.4-19.2 6.4-28.8 6.4-6.4 0-12.8 0-19.2-3.2 12.8 41.6 51.2 73.6 99.2 73.6-35.2 28.8-80 44.8-131.2 44.8h-25.6c48 28.8 102.4 48 160 48 192 0 297.6-160 297.6-297.6v-12.8c22.4-16 41.6-35.2 54.4-57.6z"/></symbol></svg>