<?xml version="1.0" encoding="utf-8"?>
<!-- Generator: Adobe Illustrator 20.0.0, SVG Export Plug-In . SVG Version: 6.00 Build 0)  -->
<svg version="1.1" id="Layer_1" xmlns="http://www.w3.org/2000/svg" xmlns:xlink="http://www.w3.org/1999/xlink" x="0px" y="0px"
	 viewBox="0 0 38 32" style="enable-background:new 0 0 38 32;" xml:space="preserve">
<path d="M36.2,9.5c0-0.3-0.1-0.5-0.4-0.7L23,0.1c-0.3-0.2-0.6-0.2-0.9,0c-0.3,0.1-0.4,0.4-0.4,0.7v7.8C9.6,9.1,0,19,0,31.2
	C0,31.6,0.4,32,0.8,32s0.8-0.4,0.8-0.8c0-11.2,8.9-20.3,19.9-20.8v7.8c0,0.3,0.2,0.6,0.4,0.7c0.1,0.1,0.3,0.1,0.4,0.1
	c0.2,0,0.3,0,0.5-0.1l12.9-8.7C36.1,10.1,36.2,9.8,36.2,9.5z M23.3,16.6V2.4l10.5,7.1L23.3,16.6z"/>
</svg>
