<?xml version="1.0" encoding="utf-8"?>
<!-- Generator: Adobe Illustrator 20.0.0, SVG Export Plug-In . SVG Version: 6.00 Build 0)  -->
<svg version="1.1" id="Layer_1" xmlns="http://www.w3.org/2000/svg" xmlns:xlink="http://www.w3.org/1999/xlink" x="0px" y="0px"
	 viewBox="0 0 28 32" style="enable-background:new 0 0 28 32;" xml:space="preserve">
<title>kamp</title>
<path d="M11.4,23.1l-5.3,2.1c-0.3,0.1-0.4,0.4-0.3,0.7c0.1,0.3,0.5,0.4,0.8,0.3c0,0,0,0,0,0l5.3-2.1c0.3-0.1,0.4-0.4,0.3-0.7
	C12.1,23.1,11.7,23,11.4,23.1z"/>
<path d="M11.3,25.5l-3.2,1.3c-0.3,0.1-0.4,0.4-0.3,0.7c0.1,0.3,0.5,0.4,0.8,0.3c0,0,0,0,0,0l3.2-1.3c0.3-0.1,0.4-0.4,0.3-0.7
	C11.9,25.6,11.6,25.4,11.3,25.5C11.3,25.5,11.3,25.5,11.3,25.5z"/>
<path d="M18.3,21.5L14,23.2c-0.3,0.1-0.4,0.4-0.3,0.7c0.1,0.3,0.5,0.4,0.8,0.3c0,0,0,0,0,0l4.3-1.7c0.3-0.1,0.4-0.4,0.3-0.7
	C18.9,21.5,18.6,21.4,18.3,21.5C18.3,21.5,18.3,21.5,18.3,21.5z"/>
<path d="M16.6,21c0.1,0,0.2,0,0.2,0l5.3-2.1c0.3-0.1,0.4-0.4,0.3-0.7c-0.1-0.3-0.5-0.4-0.8-0.3c0,0,0,0,0,0l-5.3,2.1
	C16,20,15.9,20.4,16,20.6C16.1,20.9,16.3,21,16.6,21z"/>
<path d="M22.6,19.8l-2.1,0.9c-0.3,0.1-0.4,0.4-0.3,0.7c0.1,0.3,0.5,0.4,0.8,0.3c0,0,0,0,0,0l2.1-0.9c0.3-0.1,0.4-0.4,0.3-0.7
	C23.2,19.8,22.9,19.7,22.6,19.8z"/>
<path d="M27,23.7c-0.1,0-0.2-0.1-0.3-0.1c-0.1-0.1-0.1-0.1-0.2-0.1l-0.6-0.2l1-0.4c0.6-0.2,1-0.8,1.1-1.4c0.1-1.4-0.2-2.7-0.8-3.9
	c0,0,0,0,0,0c1.2-3.6,0.6-7.6-1.8-10.6c-0.2-0.2-0.6-0.3-0.8-0.1c-0.2,0.1-0.2,0.3-0.2,0.5c0,0,0.4,3-1.4,4.5
	c0.1-2.8-1.3-5.5-3.6-7.2c-0.2-0.2-0.6-0.2-0.8,0.1c-0.1,0.1-0.1,0.2-0.1,0.3c0,0.9-0.2,1.8-0.7,2.6c-1.4-1-2.3-2.4-2.5-4
	c-0.1-0.9-0.1-1.8,0-2.7c0.1-0.3,0-0.6-0.3-0.7C14.6,0,14.4,0,14.2,0.1l0,0c-3.2,2-5.6,4.9-6.9,8.3C6.5,7,5.9,5.4,5.8,3.8
	c0-0.2-0.2-0.4-0.4-0.5c-0.2-0.1-0.5,0-0.6,0.2C0.9,9,2.6,13.3,3.3,14.7c-2.2,1.6-3.5,4.1-3.3,6.8c0,0.6,0.5,1.2,1.1,1.4l1,0.4
	l-0.6,0.2c-0.1,0-0.2,0.1-0.2,0.1c-0.1,0-0.2,0-0.3,0.1c-1.4,0.6-1.2,2.9-0.3,4.9c0.4,0.9,1,1.8,1.7,2.5c0.4,0.5,1,0.7,1.7,0.8l0,0
	C4.2,32,4.3,32,4.4,32c0,0,0.1,0,0.1,0L18,29.6l4.9,2c0.1,0,0.1,0,0.2,0c0,0,0,0,0,0c0.2,0.2,0.5,0.3,0.8,0.3c0.6,0,1.3-0.3,1.7-0.8
	c0.7-0.7,1.3-1.6,1.7-2.5C28.2,26.6,28.4,24.3,27,23.7z M23,26.9c-0.5,1-0.7,2.2-0.7,3.3L17,28l2-0.8l1.6,0.6c0.3,0.1,0.6,0,0.8-0.3
	c0.1-0.3,0-0.6-0.3-0.7l-0.6-0.2l3.6-1.4C23.6,25.7,23.3,26.3,23,26.9z M15.5,27.4L15.5,27.4C15.5,27.4,15.5,27.4,15.5,27.4
	L15.5,27.4z M26.8,21.4c0,0.2-0.2,0.4-0.4,0.4l-2.3,0.9l0,0l-10.4,4.2l0,0l-8.1,3.3c0.1-1.1-0.2-2.3-0.7-3.3c-0.4-1.1-1.1-2-2-2.8
	l0.9-0.4l0,0L8.2,22l15.6-6.3c0.2-0.1,0.4-0.1,0.6,0.1c0.5,0.4,1,1,1.4,1.5l-2.6,1c-0.3,0.1-0.4,0.4-0.3,0.7
	c0.1,0.3,0.5,0.4,0.8,0.3c0,0,0,0,0,0l2.7-1.1C26.7,19.3,26.9,20.3,26.8,21.4L26.8,21.4z M25.4,9.1c1.1,2.2,1.4,4.7,0.9,7.1
	c-0.4-0.4-0.8-0.8-1.2-1.2c-0.5-0.4-1.2-0.5-1.8-0.3l-1,0.4c0.2-0.6,0.3-1.3,0.4-2c0,0,0.1,0,0.1,0C24.4,12.2,25.3,10.7,25.4,9.1z
	 M13.9,1.7c0,0.6,0,1.3,0.1,1.9c0.4,1.9,1.5,4.3,3.7,5.1c0.3,0.1,0.6,0,0.7-0.2c0.5-0.7,0.8-1.6,1-2.4c4.2,4,1.8,9.2,1.6,9.6
	L14,18.5l-1.6-0.6C10,17,8.3,14.9,8,12.4C7.6,8.8,9.8,4.9,13.9,1.7z M4.9,5.5c0.2,1.6,1,3,2.1,4.2c-0.2,1-0.2,1.9-0.1,2.9
	c0.2,1.3,0.7,2.6,1.5,3.6l-3.8-1.5c0-0.1,0-0.1-0.1-0.1C4.5,14.5,2,10.7,4.9,5.5z M1.5,21.8c-0.2-0.1-0.3-0.2-0.4-0.4
	C1,19.1,2,17,3.9,15.6l8.1,3.3l0,0l0,0l0.5,0.2l-3.9,1.6l-2.1-0.8c-0.3-0.1-0.6,0-0.8,0.3c-0.1,0.3,0,0.6,0.3,0.7l1,0.4l-0.6,0.2
	l-3,1.2L1.5,21.8z M1.8,28.2c-0.8-1.9-0.7-3.3-0.3-3.5c0,0,0.1,0,0.1,0c0.5,0,1.5,0.9,2.3,2.6c0.8,1.9,0.7,3.3,0.3,3.5
	c-0.4,0-0.7-0.2-1-0.5C2.6,29.7,2.1,29,1.8,28.2z M26.2,28.2c-0.3,0.8-0.8,1.5-1.5,2.1c-0.2,0.3-0.6,0.5-1,0.5
	c-0.4-0.2-0.6-1.6,0.3-3.5c0.8-1.9,2-2.8,2.4-2.6C26.9,24.9,27.1,26.3,26.2,28.2z"/>
<path d="M9.4,19.8c0.3,0,0.6-0.2,0.6-0.6c0-0.2-0.1-0.4-0.4-0.5l-5.3-2.1c-0.3-0.1-0.6,0-0.8,0.3c-0.1,0.3,0,0.6,0.3,0.7l5.3,2.1
	C9.2,19.8,9.3,19.8,9.4,19.8z"/>
</svg>
