<svg xmlns="http://www.w3.org/2000/svg" viewBox="0 0 512 512" enable-background="new 0 0 512 512"><path d="M256 0c-141.4 0-256 114.6-256 256s114.6 256 256 256 256-114.6 256-256-114.6-256-256-256zm0 470c-118 0-214-96-214-214s96-214 214-214 214 96 214 214-96 214-214 214zM414.2 206l-.1-.6c-.1-.4-.1-.8-.2-1.1-.1-.2-.1-.4-.2-.7l-.3-1c-.1-.2-.2-.4-.3-.7-.1-.3-.3-.6-.5-.9l-.4-.6c-.2-.3-.4-.6-.6-.8-.1-.2-.3-.4-.5-.6-.2-.2-.4-.5-.7-.7l-.5-.5c-.2-.2-.5-.4-.8-.6l-.6-.5-.2-.2-144.8-96.5c-4.6-3-10.5-3-15.1 0l-144.7 96.5-.2.2c-.2.1-.4.3-.6.5l-.8.6-.5.5-.7.7-.5.6-.6.8-.4.6-.5.9c-.1.2-.2.4-.3.7l-.3 1c-.1.2-.1.4-.2.7-.1.4-.2.8-.2 1.1l-.1.6c-.1.6-.1 1.2-.1 1.8v96.5c0 .6 0 1.2.1 1.8l.1.6c.1.4.1.8.2 1.1.1.2.1.4.2.7l.3 1c.1.2.2.4.3.7.1.3.3.6.5.9l.4.6c.2.3.4.6.6.8l.5.6c.2.2.4.5.7.7l.5.5c.2.2.5.4.8.7l.6.5.2.2 144.8 96.3c2.3 1.5 4.9 2.3 7.5 2.3 2.6 0 5.3-.8 7.5-2.3l144.7-96.5c.1 0 .1-.1.2-.2.2-.1.4-.3.6-.5.3-.2.5-.4.8-.7.2-.2.4-.3.5-.5l.7-.7.5-.6.6-.8.4-.6.5-.9c.1-.2.2-.4.3-.7l.3-1c.1-.2.2-.4.2-.7.1-.4.2-.8.2-1.1l.1-.6c.1-.6.1-1.2.1-1.8v-96.5c.1-.4 0-1 0-1.6zm-144.6-69.3l106.6 71.1-47.6 31.8-59-39.5v-63.4zm-27.2 0v63.4l-59 39.5-47.6-31.8 106.6-71.1zm-117.5 96.5l34 22.8-34 22.8v-45.6zm117.5 142.1l-106.6-71.1 47.6-31.8 59 39.4v63.5zm13.6-87.1l-48.1-32.2 48.1-32.2 48.1 32.2-48.1 32.2zm13.6 87.1v-63.4l59-39.4 47.6 31.8-106.6 71zm117.5-96.5l-34-22.8 34-22.8v45.6z"/></svg>
