<?xml version="1.0" encoding="utf-8"?>
<!-- Generator: Adobe Illustrator 20.0.0, SVG Export Plug-In . SVG Version: 6.00 Build 0)  -->
<svg version="1.1" id="Layer_1" xmlns="http://www.w3.org/2000/svg" xmlns:xlink="http://www.w3.org/1999/xlink" x="0px" y="0px"
	 viewBox="0 0 26 32" style="enable-background:new 0 0 26 32;" xml:space="preserve">
<path d="M25.5,25.2c-0.3,0-0.5,0.2-0.5,0.5c0,0.5-0.4,0.8-0.8,0.8s-0.8-0.4-0.8-0.8c0-0.3,0.1-0.5,0.3-0.6v0.5
	c0,0.3,0.2,0.5,0.5,0.5s0.5-0.2,0.5-0.5v-2.9c0.8-0.2,1.3-0.9,1.3-1.7c0-0.8-0.6-1.5-1.3-1.7v-2.8c0.7-0.8,1-2,1-3.4v-2.5
	c0-0.3-0.2-0.5-0.5-0.5h-5.1c-0.9,0-1.6-0.7-1.6-1.6c0-0.8-0.4-1.5-1-2l-4.9-6.2C12.4,0,12.1,0,11.9,0c-0.2,0.1-0.3,0.3-0.3,0.5v2.1
	L9,0.3C8.9,0.2,8.6,0.2,8.5,0.3C8.3,0.3,8.2,0.5,8.2,0.7l0,6.5c0,0,0,0,0,0c-1.2,1.6-2,3.9-1.4,7.1c-1,0.4-3.7,1.5-6.5,3.8
	c-0.2,0.2-0.2,0.5-0.1,0.7C0.2,19,0.3,19,0.5,19c0.1,0,0.2,0,0.3-0.1c1-0.8,2-1.5,3-2.1c0.8,1.5,4.4,6.8,14.5,7
	c-0.6,1.4-1.4,2.8-2.8,4.1c-0.2,0.2-0.2,0.5,0,0.7c0.1,0.1,0.2,0.1,0.4,0.1c0.1,0,0.3,0,0.4-0.1c4.1-4,4.3-9.4,4.2-10.9h0.4v7.8
	c-1.7,4.1-1,5.5-0.8,5.8c0.2,0.3,0.6,0.6,1.3,0.6s1.1-0.4,1.3-0.6c0.2-0.3,1-1.7-0.8-5.8v-7.8c0.7,0,1.3-0.2,1.9-0.5v2
	c-0.8,0.2-1.3,0.9-1.3,1.7c0,0.8,0.6,1.5,1.3,1.7V24c-0.8,0.2-1.3,0.9-1.3,1.7c0,1,0.8,1.8,1.8,1.8c1,0,1.8-0.8,1.8-1.8
	C26,25.5,25.8,25.2,25.5,25.2z M11.5,3.8C11.6,3.8,11.6,3.8,11.5,3.8l0.1,0.7c-0.5,0.2-1.5,0.7-2.5,1.7l0-4.4L11.5,3.8z M4.7,16.4
	c1.1-0.5,1.9-0.9,2.4-1.1c0.8,1.4,3.8,5.5,12.1,5.6c-0.1,0.6-0.3,1.2-0.5,1.9C8.8,22.8,5.4,17.6,4.7,16.4z M21.8,30.8
	c-0.1,0.1-0.2,0.2-0.5,0.2s-0.4-0.1-0.5-0.2c-0.4-0.6,0-2.3,0.5-3.8C21.8,28.5,22.2,30.2,21.8,30.8z M21.8,16.8h-5.1
	c-0.3,0-0.5,0.2-0.5,0.5s0.2,0.5,0.5,0.5h2.8c0,0.4,0,1.2-0.1,2.3c-4.8-0.1-7.6-1.5-9.2-2.7s-2.2-2.5-2.3-2.7
	c-1.4-7.1,4.3-9.3,4.5-9.4c0.2-0.1,0.3-0.3,0.3-0.5l0-2.8l3.1,3.9h-1.5c-0.3,0-0.5,0.2-0.5,0.5c0,0.3,0.2,0.5,0.5,0.5h1.5
	c0.9,0,1.6,0.7,1.6,1.6c0,0,0,0.1,0,0.1h-1.6c-0.3,0-0.5,0.2-0.5,0.5c0,0.3,0.2,0.5,0.5,0.5h1.7c0,0,0.1,0,0.1,0
	c0.4,0.9,1.3,1.5,2.4,1.5h4.6v2C24.7,14.2,24.4,16.8,21.8,16.8z M23.4,21c0-0.5,0.4-0.8,0.8-0.8S25,20.5,25,21
	c0,0.5-0.4,0.8-0.8,0.8S23.4,21.4,23.4,21z"/>
</svg>
