<svg xmlns="http://www.w3.org/2000/svg" viewBox="0 0 512 512" enable-background="new 0 0 512 512"><path d="M256 511.4c-141.2 0-256-114.8-256-256s114.8-256 256-256 256 114.8 256 256-114.8 256-256 256zm215.9-220.9c-7.5-2.4-67.7-20.3-136.2-9.3 28.6 78.6 40.2 142.6 42.5 155.9 49-33.2 84-85.8 93.7-146.6zm-130.5 166.6c-3.3-19.2-15.9-86-46.6-165.8-.5.2-1 .3-1.4.5-123.3 43-167.6 128.5-171.5 136.6 37.1 28.9 83.7 46.2 134.2 46.2 30.2-.2 59.1-6.4 85.3-17.5zm-247.9-55.1c5-8.5 65-107.8 177.7-144.3 2.9-.9 5.7-1.8 8.6-2.6-5.5-12.4-11.5-24.9-17.7-37.1-109.1 32.7-215.1 31.3-224.7 31.1-.1 2.2-.1 4.4-.1 6.7 0 56.1 21.3 107.4 56.2 146.2zm-51.5-191c9.8.1 99.9.5 202.2-26.6-36.3-64.5-75.4-118.6-81.2-126.5-61.1 28.8-106.9 85.2-121 153.1zm162.8-167.8c6 8.1 45.8 62.2 81.6 128 77.8-29.1 110.7-73.4 114.6-79-38.7-34.2-89.4-55.1-145-55.1-17.6 0-34.8 2.1-51.2 6.1zm220.5 74.3c-4.6 6.2-41.3 53.2-122.1 86.2 5.1 10.4 10 21 14.5 31.7 1.6 3.8 3.2 7.5 4.7 11.3 72.8-9.1 145.1 5.5 152.3 7-.5-51.6-19-99-49.4-136.2z"/></svg>
