<svg xmlns="http://www.w3.org/2000/svg" viewBox="0 0 512 512"><path d="M256 6C114.6 6 0 120.8 0 262.3c0 113.2 73.3 209.3 175.1 243.2 12.8 2.4 17.5-5.6 17.5-12.4 0-6.1-.2-22.2-.3-43.6-71.3 15.6-86.3-34.3-86.3-34.3-11.6-29.6-28.4-37.5-28.4-37.5-23.2-15.9 1.8-15.6 1.8-15.6 25.7 1.8 39.2 26.4 39.2 26.4 22.8 39.2 59.9 27.9 74.5 21.3 2.3-16.6 8.9-27.9 16.3-34.3C152.6 369 92.8 347 92.8 248.8c0-28 10-50.9 26.4-68.8-2.6-6.5-11.4-32.5 2.5-67.8 0 0 21.5-6.9 70.4 26.3 20.4-5.7 42.3-8.5 64.1-8.6 21.7.1 43.6 2.9 64.1 8.6 48.9-33.2 70.3-26.3 70.3-26.3 14 35.3 5.2 61.4 2.5 67.8 16.4 17.9 26.3 40.8 26.3 68.8 0 98.5-59.9 120.1-116.9 126.5 9.2 7.9 17.4 23.6 17.4 47.5 0 34.3-.3 61.9-.3 70.3 0 6.9 4.6 14.8 17.6 12.3 101.6-34 174.9-130 174.9-243.2C512 120.8 397.4 6 256 6z"/></svg>
