<svg xmlns="http://www.w3.org/2000/svg" viewBox="0 0 512 512" enable-background="new 0 0 512 512"><path d="M474.1 0h-436.3c-20.9 0-37.8 16.5-37.8 36.9v438.2c0 20.3 16.9 36.9 37.8 36.9h436.3c20.9 0 37.9-16.3 37.9-36.7v-438.3c0-20.3-17-37-37.9-37zm-322.2 436.3h-76v-244.4h75.9v244.4zm-38-277.8c-24.3 0-44-19.7-44-44s19.7-44 44-44 44 19.7 44 44-19.7 44-44 44zm322.4 277.8h-75.9v-118.8c0-28.3-.5-64.8-39.5-64.8-39.5 0-45.6 30.9-45.6 62.7v120.9h-75.9v-244.4h72.8v33.4h1c10.1-19.2 34.9-39.5 71.9-39.5 76.9 0 91.1 50.6 91.1 116.4v134.1z"/></svg>
