<?xml version="1.0" encoding="utf-8"?>
<!-- Generator: Adobe Illustrator 20.0.0, SVG Export Plug-In . SVG Version: 6.00 Build 0)  -->
<svg version="1.1" id="Layer_1" xmlns="http://www.w3.org/2000/svg" xmlns:xlink="http://www.w3.org/1999/xlink" x="0px" y="0px"
	 viewBox="0 0 39 32" style="enable-background:new 0 0 39 32;" xml:space="preserve">
<g>
	<rect x="24.5" y="8.9" width="0.9" height="2.1"/>
	<polygon points="28.5,8.6 26.9,6.3 28.1,6.3 26.3,3.7 27.4,3.7 25,0.1 22.6,3.7 23.7,3.7 21.9,6.3 23.1,6.3 21.5,8.6 	"/>
	<rect x="13" y="8.5" width="0.9" height="2"/>
	<polygon points="16.8,8.3 15.3,6 16.4,6 14.7,3.5 15.8,3.5 13.4,0 11.1,3.5 12.2,3.5 10.4,6 11.6,6 10.1,8.3 	"/>
	<rect x="3.6" y="17" width="1.1" height="2.4"/>
	<polygon points="8.4,16.7 6.5,13.9 7.9,13.9 5.8,10.8 7.1,10.8 4.2,6.5 1.3,10.8 2.6,10.8 0.5,13.9 1.9,13.9 0,16.7 	"/>
	<rect x="34.1" y="17" width="1.1" height="2.4"/>
	<polygon points="38.9,16.7 37,13.9 38.4,13.9 36.2,10.8 37.6,10.8 34.7,6.5 31.8,10.8 33.1,10.8 31,13.9 32.4,13.9 30.5,16.7 	"/>
	<polygon points="13.2,15.9 7.3,27 9.7,28 12.8,23.3 15.8,30.4 19.7,32 	"/>
	<polygon points="13.9,15.5 25.3,12 31.9,26.7 20.8,32 	"/>
</g>
</svg>
