<?xml version="1.0" encoding="utf-8"?>
<!-- Generator: Adobe Illustrator 20.0.0, SVG Export Plug-In . SVG Version: 6.00 Build 0)  -->
<svg version="1.1" id="Layer_1" xmlns="http://www.w3.org/2000/svg" xmlns:xlink="http://www.w3.org/1999/xlink" x="0px" y="0px"
	 viewBox="0 0 32 32" style="enable-background:new 0 0 32 32;" xml:space="preserve">
<path d="M28.5,17.9c-6.2-4.4-10.2-9.7-11.4-11.5l3.7-2.1c0.6-0.4,0.6-1.2,0-1.6l-4.4-2.5c-0.6-0.4-1.3,0.1-1.3,0.8V6
	C14.3,7.1,10.2,13,3.4,17.8C3,18.1,3,18.6,3.2,19c0,0,3.3,5.2,2.4,12c0,0.5,0.3,0.9,0.9,1h18.9c0.5,0,0.9-0.5,0.9-1
	c-0.8-6.9,2.4-12,2.4-12C29,18.7,28.9,18.1,28.5,17.9z M18.7,3.4l-1.8,1v-2L18.7,3.4z M10.9,30.3c2.8-3.8,4.3-7.8,5.1-10.7
	c0.8,2.9,2.3,6.9,5.1,10.7H10.9z M24.4,30.3h-1.1c-5.6-6.9-6.5-15.3-6.5-15.3c0-0.4-0.4-0.8-0.9-0.8l0,0c-0.4,0-0.8,0.4-0.9,0.8
	c0,0.1-0.8,8.5-6.5,15.3H7.5c0.4-4.7-1-8.5-1.9-10.5h3.2c0.5,0,0.9-0.4,0.9-0.9c0-0.5-0.4-0.9-0.9-0.9H6.2c0.7-0.5,1.3-1.1,1.9-1.6
	h4c0.5,0,0.9-0.4,0.9-0.9s-0.4-0.9-0.9-0.9h-2c2.9-2.8,4.9-5.4,6-6.8c1.5,2.1,5.2,6.8,10.9,11C26,20.5,24,24.7,24.4,30.3z"/>
</svg>
