<svg xmlns="http://www.w3.org/2000/svg" viewBox="0 0 512 512" enable-background="new 0 0 512 512"><path d="M512 96c-19.2 9.6-38.4 12.8-60.8 16 22.4-12.8 38.4-32 44.8-57.6-19.2 12.8-41.6 19.2-67.2 25.6-19.2-19.2-48-32-76.8-32-54.4 0-102.4 48-102.4 105.6 0 9.6 0 16 3.2 22.4-86.4-3.2-166.4-44.8-217.6-108.8-9.6 16-12.8 32-12.8 51.2 0 35.2 19.2 67.2 48 86.4-16 0-32-6.4-48-12.8 0 51.2 35.2 92.8 83.2 102.4-9.6 6.4-19.2 6.4-28.8 6.4-6.4 0-12.8 0-19.2-3.2 12.8 41.6 51.2 73.6 99.2 73.6-35.2 28.8-80 44.8-131.2 44.8h-25.6c48 28.8 102.4 48 160 48 192 0 297.6-160 297.6-297.6v-12.8c22.4-16 41.6-35.2 54.4-57.6z"/></svg>
