<?xml version="1.0" encoding="UTF-8"?>
<svg width="540px" height="570px" viewBox="0 0 540 570" version="1.1" xmlns="http://www.w3.org/2000/svg" xmlns:xlink="http://www.w3.org/1999/xlink">
    <defs>
        <linearGradient x1="50%" y1="33%" x2="50%" y2="96%" id="linearGradient-1">
            <stop stop-color="#0C0C0C" offset="0%"></stop>
            <stop stop-color="#333333" offset="100%"></stop>
        </linearGradient>
        <linearGradient x1="30%" y1="30%" x2="71%" y2="70%" id="linearGradient-2">
            <stop stop-color="#0C0C0C" offset="0%"></stop>
            <stop stop-color="#333333" offset="100%"></stop>
        </linearGradient>
    </defs>
    <g id="Page-1" stroke="none" stroke-width="1" fill="none" fill-rule="evenodd">
        <g id="logo">
            <polygon id="Fill-1" fill="url(#linearGradient-1)" points="480 420 540 420 540 270.001 480 270.001"></polygon>
            <path d="M390,360.0001 C340.294,360.0001 300,319.7061 300,270.0001 C300,220.2941 340.294,180.0001 390,180.0001 C439.706,180.0001 480,220.2941 480,270.0001 C480,319.7061 439.706,360.0001 390,360.0001 M390,120.0001 C307.157,120.0001 240,187.1571 240,270.0001 C240,352.8431 307.157,420.0001 390,420.0001 C472.843,420.0001 540,352.8431 540,270.0001 C540,187.1571 472.843,120.0001 390,120.0001" id="Fill-2" fill="#333333"></path>
            <polygon id="Fill-4" fill="url(#linearGradient-2)" points="216 213 246.705 314.477 300 270 300 150"></polygon>
            <path d="M150,240.0001 C100.294,240.0001 60,199.7061 60,150.0001 C60,100.2941 100.294,60.0001 150,60.0001 C199.706,60.0001 240,100.2941 240,150.0001 C240,199.7061 199.706,240.0001 150,240.0001 M150,0.0001 C67.157,0.0001 0,67.1571 0,150.0001 C0,232.8431 67.157,300.0001 150,300.0001 C232.843,300.0001 300,232.8431 300,150.0001 C300,67.1571 232.843,0.0001 150,0.0001" id="Fill-6" fill="#484848"></path>
            <polygon id="Clip-9" points="240 570 540 570 540 495.00005 540 420.0001 240 420.0001"></polygon>
            <path d="M390,510.0001 C340.294,510.0001 300,469.7061 300,420.0001 L240,420.0001 C240,502.8431 307.157,570.0001 390,570.0001 C472.843,570.0001 540,502.8431 540,420.0001 L480,420.0001 C480,469.7061 439.706,510.0001 390,510.0001" id="Fill-8" fill="#333333"></path>
        </g>
    </g>
</svg>
