<?xml version="1.0" encoding="utf-8"?>
<!-- Generator: Adobe Illustrator 20.0.0, SVG Export Plug-In . SVG Version: 6.00 Build 0)  -->
<svg version="1.1" id="Layer_1" xmlns="http://www.w3.org/2000/svg" xmlns:xlink="http://www.w3.org/1999/xlink" x="0px" y="0px"
	 viewBox="0 0 300 57" style="enable-background:new 0 0 300 57;" xml:space="preserve">
<style type="text/css">
	.st0{fill:#58595B;}
	.st1{fill:#B8C2CC;}
</style>
<g>
	<path class="st0" d="M25.8,42.7V28.2c0-6.7-4.8-12.9-11.8-12.9c-5.9,0-11.6,5.4-11.6,12.9c0,7.4,5.8,12.9,11.6,12.9
		c3.8,0,6.5-1.6,9-4.2v2.7c-1.8,1.5-4.6,3.7-9,3.7C6.2,43.3,0,36.9,0,28.2c0-8.7,6.2-15.1,14.1-15.1c7.9,0,14.1,6.3,14.1,15.1v14.4
		H25.8z"/>
	<path class="st0" d="M35.7,42.7V0H38v42.7H35.7z"/>
	<path class="st0" d="M49.4,32.3L68,19.8c-2.1-2.7-5.5-4.4-9.3-4.4c-7.4,0-12.6,6.2-12.6,13c0,6.8,5.4,12.7,12.6,12.7
		c7,0,12.6-5.7,12.7-12.3h2.4c-0.2,7.7-6.5,14.4-14.6,14.4c-9,0-15.5-6.5-15.5-15c0-8.2,6.1-15.1,15-15.1c5.5,0,10.2,2.9,12.9,7.1
		l-20.7,14L49.4,32.3z"/>
	<path class="st0" d="M101.3,16c-5.7,0-11.2,5.4-11.2,12.3s5.5,12.3,11.2,12.3v2.2c-5.5,0-10.4-3.3-12.4-8.5
		c-2.1,5.2-6.9,8.5-12.4,8.5v-2.2c5.7,0,11.2-5.4,11.2-12.3S82.2,16,76.4,16v-2.2c5.5,0,10.4,3.3,12.4,8.5c2.1-5.2,6.9-8.5,12.4-8.5
		V16z"/>
	<path class="st0" d="M108.7,3.8c1,0,1.8,0.8,1.8,1.8s-0.8,1.8-1.8,1.8c-1,0-1.8-0.8-1.8-1.8S107.6,3.8,108.7,3.8z M107.5,42.7V13.8
		h2.3v28.9H107.5z"/>
	<path class="st0" d="M117.1,40.5H130c5.1,0,7-2,7-4.9c0-9.6-20-4-20-14.8c0-3.8,2.6-7,7.4-7h13V16h-12.8c-2.5,0-5,1.6-5,4.8
		c0,8.5,20,3.1,20,14.5c0,5.1-3.7,7.4-10.1,7.4h-12.4V40.5z"/>
	<path class="st1" d="M152.9,52.9c2.2,0.9,4.9,1.5,7.3,1.5c7.8,0,12.5-3.5,12.5-13.7V28.2c0-6.7-4.8-12.9-11.8-12.9
		c-5.9,0-11.6,5.4-11.6,12.9c0,7.4,5.8,12.9,11.6,12.9c3.8,0,6.5-1.6,9-4.2v2.7c-1.8,1.5-4.6,3.7-9,3.7c-7.9,0-14.1-6.3-14.1-15.1
		c0-8.7,6.2-15.1,14.1-15.1c7.9,0,14.1,6.3,14.1,15.1v14.1c0.1,9-6.1,14.3-14.5,14.3c-2.9,0-5.7-0.5-8.4-1.5L152.9,52.9z"/>
	<path class="st1" d="M205.7,42.7V28.2c0-6.7-4.8-12.9-11.8-12.9c-5.9,0-11.6,5.4-11.6,12.9c0,7.4,5.8,12.9,11.6,12.9
		c3.8,0,6.5-1.6,9-4.2v2.7c-1.8,1.5-4.6,3.7-9,3.7c-7.9,0-14.1-6.3-14.1-15.1c0-8.7,6.2-15.1,14.1-15.1c7.9,0,14.1,6.3,14.1,15.1
		v14.4H205.7z"/>
	<path class="st1" d="M215.6,42.7V0h2.3v42.7H215.6z"/>
	<path class="st1" d="M226.3,42.7V0h2.3v42.7H226.3z"/>
	<path class="st1" d="M237.6,3.8c1,0,1.8,0.8,1.8,1.8s-0.8,1.8-1.8,1.8c-1,0-1.8-0.8-1.8-1.8S236.6,3.8,237.6,3.8z M236.5,42.7V13.8
		h2.3v28.9H236.5z"/>
	<path class="st1" d="M246.1,40.5H259c5.1,0,7-2,7-4.9c0-9.6-20-4-20-14.8c0-3.8,2.6-7,7.4-7h13V16h-12.8c-2.5,0-5,1.6-5,4.8
		c0,8.5,20,3.1,20,14.5c0,5.1-3.7,7.4-10.1,7.4h-12.4V40.5z"/>
	<path class="st1" d="M297.7,42.7V28.2c0-6.7-4.8-12.9-11.8-12.9c-5.9,0-11.6,5.4-11.6,12.9c0,7.4,5.8,12.9,11.6,12.9
		c3.8,0,6.5-1.6,9-4.2v2.7c-1.8,1.5-4.6,3.7-9,3.7c-7.9,0-14.1-6.3-14.1-15.1c0-8.7,6.2-15.1,14.1-15.1c7.9,0,14.1,6.3,14.1,15.1
		v14.4H297.7z M283.2,10.1l7.3-8.4h3.1l-8.1,8.4H283.2z"/>
</g>
</svg>
