<svg width="540" height="570" viewBox="0 0 540 570" xmlns="http://www.w3.org/2000/svg"><defs><linearGradient x1="50%" y1="33%" x2="50%" y2="96%" id="a"><stop stop-color="#0C0C0C" offset="0%"/><stop stop-color="#333" offset="100%"/></linearGradient><linearGradient x1="30%" y1="30%" x2="71%" y2="70%" id="b"><stop stop-color="#0C0C0C" offset="0%"/><stop stop-color="#333" offset="100%"/></linearGradient></defs><g fill="none"><path fill="url(#a)" d="M480 420h60v-149.999h-60z"/><path d="M390 360c-49.706 0-90-40.294-90-90s40.294-90 90-90 90 40.294 90 90-40.294 90-90 90m0-240c-82.843 0-150 67.157-150 150s67.157 150 150 150 150-67.157 150-150-67.157-150-150-150" fill="#333"/><path fill="url(#b)" d="M216 213l30.705 101.477 53.295-44.477v-120z"/><path d="M150 240c-49.706 0-90-40.294-90-90s40.294-90 90-90 90 40.294 90 90-40.294 90-90 90m0-240c-82.843 0-150 67.157-150 150s67.157 150 150 150 150-67.157 150-150-67.157-150-150-150" fill="#484848"/><path d="M240 570h300v-150h-300z"/><path d="M390 510c-49.706 0-90-40.294-90-90h-60c0 82.843 67.157 150 150 150s150-67.157 150-150h-60c0 49.706-40.294 90-90 90" fill="#333"/></g></svg>